<svg aria-hidden="true" style="width:0;height:0;position:absolute" xmlns="http://www.w3.org/2000/svg" overflow="hidden"><symbol id="icon-logo" viewBox="0 0 53 44" fill="none"><path d="M18.265 17.799c-1.89 6.4 6.013 12.06 10.2 14.09 8.78-7.716.394-22.246-5.032-28.434.49 6.035-2.806 6.344-5.168 14.344Z" fill="#000"/><path d="M28.465 31.889c-4.187-2.03-12.09-7.69-10.2-14.09 2.362-8 5.659-8.309 5.168-14.344 5.426 6.188 13.811 20.718 5.032 28.434Zm0 0a134.305 134.305 0 0 1-.935-3.172m-3.35-21.51c.154.187.624 1.192.563 3.635m1.823 14.32 1.913-1.939m-1.913 1.94-.12-.465m.12.464c.225.872.455 1.728.681 2.545m-.801-3.01-3.5-3.942m3.5 3.943c-.128-.5-.254-1.005-.377-1.509m-.332-1.402.836-3.336m-.836 3.336c-.139-.603-.27-1.2-.393-1.784m.393 1.784c.107.465.218.934.332 1.402m-.725-3.186-1.634-1.484m1.634 1.484a61.634 61.634 0 0 1-.465-2.444m0 0 1.985-2.304m-1.985 2.304a41.04 41.04 0 0 1-.126-.797m-.169-1.348-1.548-1.886m1.548 1.886c.042.42.099.872.169 1.348m-.169-1.348a18.647 18.647 0 0 1-.045-.54m.214 1.888-1.816-2.211m4.31 13.156-3.975-4.326m3.975 4.326.283 1.01m0 0 1.598-3.195M26.07 23.19l1.892-1.554m-3.397-8.515-.014.106c-.056.438-.056.997-.011 1.649m.024-1.755 1.591-1.307m-1.59 1.307c.049-.397.087-.77.116-1.12m-.141 2.875 1.201-.987m-.997-3.046.743-1.356m-.743 1.356c-.01.355-.03.74-.063 1.158m0 0-.602-1.967" stroke="#fff" stroke-width=".221"/><path d="M35.782 18.456c-6.46-.56-9.516 7.78-10.237 12.02 9.593 6.675 20.742-3.75 24.975-9.903-5.461 1.569-6.663-1.416-14.738-2.117Z" fill="#000"/><path d="M25.545 30.475c.72-4.24 3.777-12.58 10.237-12.019 8.075.701 9.277 3.686 14.738 2.117-4.233 6.153-15.382 16.578-24.975 9.902Zm0 0a115.274 115.274 0 0 1 2.682-1.45m19.02-7.068c-.13.176-.932.796-3.215 1.191m-12.776 4.33 2.33 1.408m-2.33-1.408.398-.196m-.398.196c-.745.37-1.475.74-2.17 1.1m2.568-1.296 2.685-3.96m-2.685 3.96c.429-.21.861-.42 1.295-.627m1.208-.565 3.326.154m-3.326-.154c.52-.24 1.038-.472 1.546-.693m-1.546.693c-.402.184-.805.374-1.208.566m2.754-1.26.923-1.782m-.923 1.783c.739-.322 1.457-.62 2.137-.881m0 0 2.688 1.406m-2.688-1.407c.24-.092.475-.18.705-.263m1.203-.405 1.319-1.777m-1.319 1.777c-.378.116-.781.252-1.203.405m1.203-.405c.167-.05.33-.098.487-.141m-1.69.546 1.546-2.085m-11.006 6.411 2.91-4.468m-2.91 4.468c-.292.152-.579.301-.858.448m0 0 3.407.884m1.315-3.255 1.966 1.46m6.955-4.711-.102.007c-.422.03-.94.132-1.533.295m1.635-.302 1.653 1.226m-1.653-1.226a25.18 25.18 0 0 0 1.07-.1m-2.705.402 1.25.926m2.547-1.484 1.464.435m-1.464-.435c-.331.057-.694.11-1.091.156m0 0 1.657-.918" stroke="#fff" stroke-width=".221"/><path d="M13.185 25.193c1.277 6.357 10.14 6.947 14.411 6.447 3.71-11.082-9.427-18.852-16.52-21.186 3.04 4.8.512 6.793 2.11 14.739Z" fill="#000"/><path d="M27.596 31.64c-4.271.5-13.134-.09-14.41-6.447-1.598-7.947.93-9.939-2.11-14.739 7.093 2.334 20.23 10.104 16.52 21.186Zm0 0a115.564 115.564 0 0 1-2.144-2.166m-12.13-16.268c.207.076 1.027.671 2.047 2.751m7.746 11.044.696-2.631m-.696 2.631-.3-.327m.3.327c.565.612 1.125 1.208 1.666 1.775m-1.966-2.102-4.555-1.463m4.555 1.463c-.322-.351-.645-.708-.965-1.066m-.883-1-.786-3.236m.786 3.236a81.694 81.694 0 0 1-1.099-1.289m1.1 1.289c.29.333.585.668.882 1m-1.982-2.289-1.97-.385m1.97.385a54.693 54.693 0 0 1-1.446-1.804m0 0 .594-2.974m-.594 2.974a37.48 37.48 0 0 1-.451-.602m-.727-1.041-2.076-.766m2.076.766c.218.33.462.68.727 1.041m-.727-1.041a16.93 16.93 0 0 1-.273-.428m1 1.47-2.435-.9m9.245 8.762-5.106-1.537m5.106 1.537c.227.238.451.471.67.698m0 0-.108-3.518m-3.493-.348.847-2.297m-6.474-5.35.035.095c.147.397.391.866.713 1.388m-.748-1.484.712-1.93m-.712 1.93a25.356 25.356 0 0 0-.397-1m1.145 2.484.539-1.459m-2.14-2.028.006-1.527m-.007 1.527c.149.302.301.636.457 1.004m0 0-1.347-1.332" stroke="#fff" stroke-width=".221"/><path d="M29.984 15.013c-6.082 2.247-5.292 11.094-4.136 15.237 11.523 1.948 17.163-12.235 18.37-19.605-4.272 3.747-6.631 1.56-14.234 4.368Z" fill="#000"/><path d="M25.848 30.25c-1.156-4.143-1.946-12.99 4.136-15.237 7.603-2.809 9.962-.621 14.233-4.368-1.206 7.37-6.846 21.553-18.37 19.605Zm0 0a116.082 116.082 0 0 1 1.808-2.455m14.191-14.504c-.043.216-.504 1.118-2.4 2.448m-9.71 9.364 2.707.28m-2.708-.28.277-.347m-.277.348c-.517.652-1.019 1.298-1.494 1.92m1.77-2.268.741-4.726m-.74 4.726c.297-.373.6-.747.903-1.118m.852-1.027 3.075-1.279m-3.075 1.279c.369-.44.738-.87 1.103-1.286m-1.103 1.286c-.285.338-.569.681-.852 1.027m1.955-2.313.075-2.006m-.075 2.006a54.528 54.528 0 0 1 1.558-1.709m0 0 3.03.127m-3.03-.127c.177-.186.352-.365.524-.538m.916-.88.435-2.17m-.434 2.17c-.293.267-.6.562-.916.88m.916-.88c.129-.117.256-.23.38-.335m-1.297 1.215.51-2.545m-7.221 10.491.726-5.282m-.726 5.282-.586.771m0 0 3.459-.653m-.199-3.504 2.4.48m4.284-7.225-.09.05c-.369.206-.794.52-1.26.92m1.35-.97 2.018.404m-2.018-.404c.333-.188.641-.37.926-.547m-2.276 1.517 1.525.305m1.672-2.428 1.509-.23m-1.51.23c-.275.193-.58.395-.92.606m0 0 1.107-1.537" stroke="#fff" stroke-width=".221"/><path d="M11.51 31.726c3.866 5.205 12.134 1.96 15.785-.313C25.926 19.807 10.73 18.38 3.318 19.294c4.797 3.046 3.36 5.925 8.192 12.433Z" fill="#000"/><path d="M27.295 31.413c-3.65 2.274-11.919 5.518-15.785.313-4.832-6.508-3.395-9.387-8.192-12.433 7.412-.913 22.608.514 23.977 12.12Zm0 0a115.733 115.733 0 0 1-2.864-1.045M6.524 20.824c.219-.02 1.214.17 3.024 1.616m11.716 6.688-.493-2.677m.493 2.677-.411-.168m.41.168c.772.313 1.533.613 2.264.894m-2.674-1.062-4.744.618m4.744-.618a118.22 118.22 0 0 1-1.328-.553m-1.225-.529-2.09-2.591m2.09 2.591a81.387 81.387 0 0 1-1.544-.697m1.544.697c.405.178.814.355 1.225.529m-2.768-1.226-1.946.492m1.945-.492c-.73-.34-1.43-.68-2.077-1.015m0 0-.73-2.944m.73 2.944c-.228-.118-.45-.236-.664-.352m-1.101-.632-2.206.192m2.206-.192c.337.206.706.418 1.1.632m-1.1-.632c-.15-.091-.293-.181-.43-.27m1.53.902-2.585.226m12.098 3.982-5.274.788m5.274-.788c.307.119.61.234.904.346m0 0-1.598-3.136m-3.308 1.175-.213-2.439m-8.138-2.08.073.072c.302.296.723.616 1.237.951m-1.31-1.023-.179-2.05m.18 2.05a25.184 25.184 0 0 0-.786-.735m2.095 1.758-.135-1.549m-2.8-.922-.646-1.384m.645 1.384c.263.21.543.447.841.713m0 0-1.786-.63" stroke="#fff" stroke-width=".221"/></symbol><symbol id="icon-mail" viewBox="0 0 25 25"><g clip-path="url('#clip0_2_122')"><path d="M3.375 3.684h18a1 1 0 0 1 1 1v16a1 1 0 0 1-1 1h-18a1 1 0 0 1-1-1v-16a1 1 0 0 1 1-1Zm17 4.238-7.928 7.1L4.376 7.9v11.784h16V7.922ZM4.886 5.684l7.55 6.662 7.442-6.662H4.886Z" fill="#fff"/></g><defs><clipPath id="clip0_2_122"><path fill="#fff" transform="translate(.375 .684)" d="M0 0h24v24H0z"/></clipPath></defs></symbol><symbol id="icon-location" viewBox="0 0 25 25"><g clip-path="url('#clip0_2_127')"><path d="M12.376 23.759 6.01 17.395a9 9 0 1 1 12.729 0l-6.364 6.364Zm4.95-7.778a7 7 0 1 0-9.9 0l4.95 4.95 4.95-4.95Zm-4.95-2.95a2 2 0 1 1 0-4 2 2 0 0 1 0 4Z" fill="#fff"/></g><defs><clipPath id="clip0_2_127"><path fill="#fff" transform="translate(.375 .03)" d="M0 0h24v24H0z"/></clipPath></defs></symbol></svg>